<svg width="14" height="14" viewBox="0 0 14 14" fill="none" xmlns="http://www.w3.org/2000/svg">
<path d="M6.9375 12.875C10.2167 12.875 12.875 10.2167 12.875 6.9375C12.875 3.65831 10.2167 1 6.9375 1C3.65831 1 1 3.65831 1 6.9375C1 10.2167 3.65831 12.875 6.9375 12.875Z" stroke="#222222" stroke-linecap="round"/>
<path d="M4.56787 9.82625C4.83154 9.59794 5.19221 9.42269 5.60085 9.30475C6.01195 9.18606 6.47251 9.125 6.93751 9.125C7.40251 9.125 7.86308 9.18606 8.2742 9.30475C8.68283 9.42269 9.04351 9.59794 9.30714 9.82625" stroke="#222222" stroke-linecap="round"/>
<path d="M5.0625 6.3125C5.40768 6.3125 5.6875 6.03268 5.6875 5.6875C5.6875 5.34232 5.40768 5.0625 5.0625 5.0625C4.71732 5.0625 4.4375 5.34232 4.4375 5.6875C4.4375 6.03268 4.71732 6.3125 5.0625 6.3125Z" fill="#222222" stroke="#222222" stroke-linecap="round"/>
<path d="M8.8125 6.3125C9.15768 6.3125 9.4375 6.03268 9.4375 5.6875C9.4375 5.34232 9.15768 5.0625 8.8125 5.0625C8.46732 5.0625 8.1875 5.34232 8.1875 5.6875C8.1875 6.03268 8.46732 6.3125 8.8125 6.3125Z" fill="#222222" stroke="#222222" stroke-linecap="round"/>
</svg>
