<svg width="12" height="12" viewBox="0 0 12 12" fill="none" xmlns="http://www.w3.org/2000/svg">
<g clip-path="url(#clip0_1050_176)">
<path d="M1.5 0.75C1.88462 0.75 2.20163 1.03953 2.24495 1.41253L2.25 1.5V9.75H10.5C10.9142 9.75 11.25 10.0858 11.25 10.5C11.25 10.8846 10.9605 11.2016 10.5875 11.245L10.5 11.25H2.25C1.45923 11.25 0.811376 10.6381 0.754114 9.86195L0.75 9.75V1.5C0.75 1.08579 1.08579 0.75 1.5 0.75ZM4.5 5.25C4.88462 5.25 5.20163 5.53953 5.24495 5.91253L5.25 6V7.5C5.25 7.91423 4.91421 8.25 4.5 8.25C4.11538 8.25 3.79837 7.96048 3.75505 7.58747L3.75 7.5V6C3.75 5.58578 4.08579 5.25 4.5 5.25ZM7.5 2.25C7.91423 2.25 8.25 2.58579 8.25 3V7.5C8.25 7.91423 7.91423 8.25 7.5 8.25C7.08578 8.25 6.75 7.91423 6.75 7.5V3C6.75 2.58579 7.08578 2.25 7.5 2.25ZM10.5 3.75C10.9142 3.75 11.25 4.08579 11.25 4.5V7.5C11.25 7.91423 10.9142 8.25 10.5 8.25C10.0858 8.25 9.75 7.91423 9.75 7.5V4.5C9.75 4.08579 10.0858 3.75 10.5 3.75Z" fill="black"/>
</g>
<defs>
<clipPath id="clip0_1050_176">
<rect width="12" height="12" fill="white"/>
</clipPath>
</defs>
</svg>
