<svg width="8" height="10" viewBox="0 0 8 10" fill="none" xmlns="http://www.w3.org/2000/svg">
<path d="M0.567383 5.08496H1.28516C1.55859 5.08496 1.8252 5.06445 2.08496 5.02344C2.34928 4.97786 2.5931 4.89811 2.81641 4.78418C3.04427 4.67025 3.24023 4.51758 3.4043 4.32617C3.57292 4.13021 3.69824 3.88184 3.78027 3.58105H0.567383V2.41895H3.78027C3.73926 2.14095 3.64128 1.91764 3.48633 1.74902C3.33138 1.5804 3.14453 1.4528 2.92578 1.36621C2.70703 1.27507 2.46549 1.21582 2.20117 1.18848C1.94141 1.15658 1.68392 1.14062 1.42871 1.14062H0.567383V-0.0078125H7.41699V1.1543H4.92188C5.12695 1.33203 5.29557 1.52116 5.42773 1.72168C5.5599 1.9222 5.6556 2.15462 5.71484 2.41895H7.41699V3.58105H5.70117C5.65104 3.84082 5.56445 4.09603 5.44141 4.34668C5.31836 4.59277 5.16797 4.82064 4.99023 5.03027C4.8125 5.23535 4.6097 5.41764 4.38184 5.57715C4.15853 5.7321 3.92155 5.85059 3.6709 5.93262L6.58301 10.0068H4.32715L1.90723 6.25391H0.567383V5.08496Z" fill="#D9DADB"/>
</svg>
